<mxfile host="app.diagrams.net" modified="2023-08-12T18:56:02.910Z" agent="Mozilla/5.0 (Windows NT 10.0; Win64; x64) AppleWebKit/537.36 (KHTML, like Gecko) Chrome/115.0.0.0 Safari/537.36" etag="2S3jUhRDh5d2bXq-8PTX" version="21.6.8" type="device">
  <diagram name="Страница — 1" id="UsJAQwBTMhezr2IWsCE0">
    <mxGraphModel dx="233" dy="128" grid="1" gridSize="10" guides="1" tooltips="1" connect="1" arrows="1" fold="1" page="1" pageScale="1" pageWidth="827" pageHeight="1169" math="0" shadow="0">
      <root>
        <mxCell id="0" />
        <mxCell id="1" parent="0" />
        <mxCell id="WW6VWAOOgwWINRG06xct-1" value="" style="whiteSpace=wrap;html=1;aspect=fixed;" vertex="1" parent="1">
          <mxGeometry x="340" y="210" width="840" height="840" as="geometry" />
        </mxCell>
        <mxCell id="WW6VWAOOgwWINRG06xct-2" value="&lt;font style=&quot;font-size: 25px;&quot;&gt;&lt;b&gt;MCU&lt;/b&gt;&lt;/font&gt;" style="text;html=1;strokeColor=none;fillColor=none;align=center;verticalAlign=middle;whiteSpace=wrap;rounded=0;" vertex="1" parent="1">
          <mxGeometry x="400" y="260" width="60" height="30" as="geometry" />
        </mxCell>
        <mxCell id="WW6VWAOOgwWINRG06xct-3" value="" style="rounded=0;whiteSpace=wrap;html=1;" vertex="1" parent="1">
          <mxGeometry x="340" y="350" width="180" height="150" as="geometry" />
        </mxCell>
        <mxCell id="WW6VWAOOgwWINRG06xct-4" value="&lt;ul style=&quot;font-size: 22px;&quot;&gt;&lt;li&gt;SPI&lt;/li&gt;&lt;li&gt;UART&lt;/li&gt;&lt;li&gt;Wi-Fi&lt;/li&gt;&lt;/ul&gt;" style="text;strokeColor=none;fillColor=none;html=1;whiteSpace=wrap;verticalAlign=middle;overflow=hidden;" vertex="1" parent="1">
          <mxGeometry x="370" y="360" width="150" height="115" as="geometry" />
        </mxCell>
        <mxCell id="WW6VWAOOgwWINRG06xct-5" value="&lt;font style=&quot;font-size: 19px;&quot;&gt;&lt;b&gt;Memory&amp;nbsp; MCU&lt;/b&gt;&lt;/font&gt;" style="shape=ext;double=1;rounded=0;whiteSpace=wrap;html=1;" vertex="1" parent="1">
          <mxGeometry x="650" y="310" width="250" height="240" as="geometry" />
        </mxCell>
        <mxCell id="WW6VWAOOgwWINRG06xct-6" value="&lt;b&gt;&lt;font style=&quot;font-size: 27px;&quot;&gt;Orchestral pit&lt;/font&gt;&lt;/b&gt;" style="shape=ext;double=1;rounded=0;whiteSpace=wrap;html=1;" vertex="1" parent="1">
          <mxGeometry x="645" y="890" width="260" height="160" as="geometry" />
        </mxCell>
        <mxCell id="WW6VWAOOgwWINRG06xct-8" value="" style="endArrow=classic;html=1;rounded=0;" edge="1" parent="1">
          <mxGeometry width="50" height="50" relative="1" as="geometry">
            <mxPoint x="200" y="450" as="sourcePoint" />
            <mxPoint x="340" y="450" as="targetPoint" />
          </mxGeometry>
        </mxCell>
        <mxCell id="WW6VWAOOgwWINRG06xct-9" value="" style="endArrow=classic;html=1;rounded=0;" edge="1" parent="1">
          <mxGeometry width="50" height="50" relative="1" as="geometry">
            <mxPoint x="200" y="399.99999999999994" as="sourcePoint" />
            <mxPoint x="340" y="399.99999999999994" as="targetPoint" />
          </mxGeometry>
        </mxCell>
        <mxCell id="WW6VWAOOgwWINRG06xct-10" value="" style="endArrow=classic;html=1;rounded=0;" edge="1" parent="1">
          <mxGeometry width="50" height="50" relative="1" as="geometry">
            <mxPoint x="200" y="370" as="sourcePoint" />
            <mxPoint x="340" y="370" as="targetPoint" />
          </mxGeometry>
        </mxCell>
        <mxCell id="WW6VWAOOgwWINRG06xct-11" value="" style="endArrow=classic;html=1;rounded=0;" edge="1" parent="1">
          <mxGeometry width="50" height="50" relative="1" as="geometry">
            <mxPoint x="200" y="480" as="sourcePoint" />
            <mxPoint x="340" y="480" as="targetPoint" />
          </mxGeometry>
        </mxCell>
        <mxCell id="WW6VWAOOgwWINRG06xct-20" value="" style="html=1;shadow=0;dashed=0;align=center;verticalAlign=middle;shape=mxgraph.arrows2.arrow;dy=0.6;dx=40;notch=0;" vertex="1" parent="1">
          <mxGeometry x="520" y="365" width="130" height="120" as="geometry" />
        </mxCell>
        <mxCell id="WW6VWAOOgwWINRG06xct-22" value="" style="html=1;shadow=0;dashed=0;align=center;verticalAlign=middle;shape=mxgraph.arrows2.arrow;dy=0.6;dx=40;direction=south;notch=0;" vertex="1" parent="1">
          <mxGeometry x="685" y="550" width="180" height="340" as="geometry" />
        </mxCell>
        <mxCell id="WW6VWAOOgwWINRG06xct-24" value="&lt;b&gt;&lt;font style=&quot;font-size: 45px;&quot;&gt;CAN_FD&lt;/font&gt;&lt;/b&gt;" style="rounded=0;whiteSpace=wrap;html=1;" vertex="1" parent="1">
          <mxGeometry x="590" y="1240" width="370" height="150" as="geometry" />
        </mxCell>
        <mxCell id="WW6VWAOOgwWINRG06xct-25" value="" style="endArrow=classic;startArrow=classic;html=1;rounded=0;exitX=0.433;exitY=0.001;exitDx=0;exitDy=0;exitPerimeter=0;" edge="1" parent="1" source="WW6VWAOOgwWINRG06xct-24">
          <mxGeometry width="50" height="50" relative="1" as="geometry">
            <mxPoint x="630" y="1270" as="sourcePoint" />
            <mxPoint x="750" y="1050" as="targetPoint" />
          </mxGeometry>
        </mxCell>
        <mxCell id="WW6VWAOOgwWINRG06xct-26" value="" style="endArrow=classic;startArrow=classic;html=1;rounded=0;entryX=0.449;entryY=1.005;entryDx=0;entryDy=0;entryPerimeter=0;exitX=0.461;exitY=0.004;exitDx=0;exitDy=0;exitPerimeter=0;" edge="1" parent="1">
          <mxGeometry width="50" height="50" relative="1" as="geometry">
            <mxPoint x="800" y="1240" as="sourcePoint" />
            <mxPoint x="801" y="1050" as="targetPoint" />
          </mxGeometry>
        </mxCell>
        <mxCell id="WW6VWAOOgwWINRG06xct-29" value="" style="endArrow=classic;startArrow=classic;html=1;rounded=0;entryX=0.352;entryY=0.992;entryDx=0;entryDy=0;entryPerimeter=0;" edge="1" parent="1" target="WW6VWAOOgwWINRG06xct-24">
          <mxGeometry width="50" height="50" relative="1" as="geometry">
            <mxPoint x="720" y="1520" as="sourcePoint" />
            <mxPoint x="770" y="1420" as="targetPoint" />
          </mxGeometry>
        </mxCell>
        <mxCell id="WW6VWAOOgwWINRG06xct-30" value="" style="endArrow=classic;startArrow=classic;html=1;rounded=0;entryX=0.641;entryY=1.004;entryDx=0;entryDy=0;entryPerimeter=0;" edge="1" parent="1" target="WW6VWAOOgwWINRG06xct-24">
          <mxGeometry width="50" height="50" relative="1" as="geometry">
            <mxPoint x="827" y="1519" as="sourcePoint" />
            <mxPoint x="826" y="1390" as="targetPoint" />
          </mxGeometry>
        </mxCell>
      </root>
    </mxGraphModel>
  </diagram>
</mxfile>
